#!OML:ASF H:\Dans Jumps\Project 1\Capture day 1\Session 1\subject.ASF
:FULLY-SPECIFIED
:DEGREES
156
root 0.803912 17.5582 -13.9703 7.00208 -1.07955 -1.47957
lowerback -3.09745 -0.886228 0.129913
upperback 3.07103 -1.27454 1.84096
thorax 4.95104 -0.664263 1.7385
lowerneck -13.4804 0.091216 -2.21724
upperneck 28.3632 0.850961 -0.534937
head 11.4462 0.073042 0.29971
rclavicle -1.22253e-014 1.59028e-015
rhumerus -23.0898 -19.2686 -78.4907
rradius 25.4796
rwrist 32.9513
rhand -17.9492 -26.1899
rfingers 7.12502
rthumb 8.31934 -56.0061
lclavicle -1.22253e-014 1.59028e-015
lhumerus -20.1591 4.46874 85.6698
lradius 17.7185
lwrist -1.43101
lhand -24.0928 -3.28909
lfingers 7.12502
lthumb 2.38776 26.6773
rfemur -13.3134 -2.23028 19.0689
rtibia 20.0186
rfoot -13.0579 -3.80088
rtoes 11.0951
lfemur -12.1745 8.32785 -18.2037
ltibia 17.5243
lfoot -10.0011 5.74889
ltoes -8.90672
157
root 0.804693 17.5583 -13.9741 7.00565 -1.08512 -1.46432
lowerback -3.08171 -0.889723 0.117725
upperback 3.06725 -1.27828 1.84068
thorax 4.9385 -0.666509 1.74501
lowerneck -13.4794 0.101356 -2.21655
upperneck 28.3576 0.865897 -0.537513
head 11.4437 0.0795834 0.300665
rclavicle 1.4561e-014 -3.57812e-014
rhumerus -23.0948 -19.2719 -78.476
rradius 25.4778
rwrist 32.9614
rhand -17.9514 -26.1846
rfingers 7.12502
rthumb 8.3172 -56.0009
lclavicle 1.4561e-014 -3.57812e-014
lhumerus -20.1465 4.4058 85.6939
lradius 17.7264
lwrist -1.39017
lhand -24.0997 -3.30808
lfingers 7.12502
lthumb 2.38112 26.6584
rfemur -13.3458 -2.21174 19.0499
rtibia 20.0428
rfoot -13.0527 -3.81971
rtoes 11.0775
lfemur -12.1842 8.34999 -18.2249
ltibia 17.5084
lfoot -10.0231 5.70779
ltoes -8.86991
158
root 0.805455 17.5585 -13.9783 7.0136 -1.0871 -1.44954
lowerback -3.06493 -0.893513 0.108179
upperback 3.06285 -1.28249 1.83954
thorax 4.92464 -0.668871 1.74912
lowerneck -13.4763 0.109438 -2.21902
upperneck 28.3518 0.877679 -0.536803
head 11.4407 0.0847869 0.302936
rclavicle -4.07509e-015 -5.56597e-015
rhumerus -23.1027 -19.2687 -78.4646
rradius 25.4777
rwrist 32.9657
rhand -17.9551 -26.174
rfingers 7.12502
rthumb 8.31366 -55.9904
lclavicle -4.07509e-015 -5.56597e-015
lhumerus -20.1332 4.35107 85.7137
lradius 17.7385
lwrist -1.35394
lhand -24.1082 -3.34783
lfingers 7.12502
lthumb 2.37287 26.6187
rfemur -13.3836 -2.19226 19.0317
rtibia 20.0666
rfoot -13.0462 -3.84152
rtoes 11.0712
lfemur -12.2024 8.37416 -18.2466
ltibia 17.4944
lfoot -10.0432 5.66259
ltoes -8.84638
159
root 0.806276 17.5587 -13.9827 7.02627 -1.08532 -1.43488
lowerback -3.04741 -0.897478 0.101966
upperback 3.05818 -1.28705 1.83708
thorax 4.91 -0.671251 1.74998
lowerneck -13.4839 0.115744 -2.22098
upperneck 28.3546 0.886935 -0.534974
head 11.4433 0.0889059 0.305228
rclavicle 4.72114e-015 -2.54444e-014
rhumerus -23.1104 -19.2636 -78.4563
rradius 25.4767
rwrist 32.969
rhand -17.9589 -26.1581
rfingers 7.12502
rthumb 8.30995 -55.9747
lclavicle 4.72114e-015 -2.54444e-014
lhumerus -20.1174 4.30068 85.73
lradius 17.7533
lwrist -1.32052
lhand -24.1107 -3.37885
lfingers 7.12502
lthumb 2.37049 26.5877
rfemur -13.4268 -2.17647 19.0138
rtibia 20.0893
rfoot -13.0387 -3.86279
rtoes 11.0631
lfemur -12.2293 8.40052 -18.2698
ltibia 17.483
lfoot -10.0603 5.61423
ltoes -8.83537
160
root 0.807205 17.5589 -13.9871 7.04084 -1.07876 -1.42012
lowerback -3.02958 -0.902712 0.0982889
upperback 3.05485 -1.29343 1.83415
thorax 4.89656 -0.674448 1.74879
lowerneck -13.497 0.121364 -2.22224
upperneck 28.361 0.895552 -0.534156
head 11.4483 0.0926245 0.306961
rclavicle 3.67752e-015 1.19271e-014
rhumerus -23.1183 -19.2532 -78.4509
rradius 25.4767
rwrist 32.9674
rhand -17.9621 -26.1347
rfingers 7.12502
rthumb 8.30688 -55.9514
lclavicle 3.67752e-015 1.19271e-014
lhumerus -20.1008 4.25381 85.7445
lradius 17.7727
lwrist -1.28468
lhand -24.1185 -3.4071
lfingers 7.12502
lthumb 2.36296 26.5596
rfemur -13.4701 -2.16897 18.9958
rtibia 20.1102
rfoot -13.0317 -3.88029
rtoes 11.0568
lfemur -12.2614 8.4273 -18.2945
ltibia 17.4747
lfoot -10.0742 5.56459
ltoes -8.83721
161
root 0.808177 17.5591 -13.9916 7.05654 -1.06714 -1.40791
lowerback -3.01037 -0.90898 0.0986471
upperback 3.05187 -1.30143 1.83185
thorax 4.88268 -0.678315 1.74591
lowerneck -13.5105 0.125845 -2.22297
upperneck 28.3691 0.902591 -0.53386
head 11.4541 0.095604 0.3082
rclavicle 1.63003e-014 -1.55052e-014
rhumerus -23.1288 -19.2368 -78.4471
rradius 25.4779
rwrist 32.9588
rhand -17.9663 -26.1089
rfingers 7.12502
rthumb 8.30286 -55.9257
lclavicle 1.63003e-014 -1.55052e-014
lhumerus -20.0848 4.20401 85.759
lradius 17.7968
lwrist -1.2412
lhand -24.1247 -3.41732
lfingers 7.12502
lthumb 2.35696 26.5494
rfemur -13.5123 -2.16686 18.9809
rtibia 20.1284
rfoot -13.0238 -3.89831
rtoes 11.0465
lfemur -12.2982 8.45291 -18.3169
ltibia 17.4701
lfoot -10.0851 5.5145
ltoes -8.84371
162
root 0.809272 17.5593 -13.9959 7.07159 -1.04979 -1.39861
lowerback -2.98878 -0.915825 0.104528
upperback 3.05118 -1.31052 1.82994
thorax 4.86975 -0.682548 1.74027
lowerneck -13.5264 0.128941 -2.2218
upperneck 28.3751 0.907639 -0.535001
head 11.4596 0.0977345 0.308317
rclavicle 3.37934e-015 1.59028e-015
rhumerus -23.1383 -19.2204 -78.444
rradius 25.4779
rwrist 32.9481
rhand -17.9708 -26.0821
rfingers 7.12502
rthumb 8.29852 -55.8991
lclavicle 3.37934e-015 1.59028e-015
lhumerus -20.0654 4.15638 85.7735
lradius 17.8216
lwrist -1.19857
lhand -24.1295 -3.41305
lfingers 7.12502
lthumb 2.35226 26.5537
rfemur -13.5504 -2.17415 18.9693
rtibia 20.1429
rfoot -13.0154 -3.91289
rtoes 11.0338
lfemur -12.3364 8.47589 -18.3362
ltibia 17.4694
lfoot -10.0951 5.46223
ltoes -8.85158
163
root 0.810387 17.5597 -14.0003 7.0867 -1.02876 -1.39371
lowerback -2.96536 -0.922891 0.115618
upperback 3.05104 -1.3202 1.82917
thorax 4.85627 -0.68692 1.73289
lowerneck -13.5377 0.131374 -2.21963
upperneck 28.3762 0.911683 -0.537549
head 11.4623 0.0994259 0.30759
rclavicle 8.29926e-015 -6.36111e-015
rhumerus -23.152 -19.1945 -78.4422
rradius 25.4815
rwrist 32.9303
rhand -17.9741 -26.0645
rfingers 7.12502
rthumb 8.29534 -55.8816
lclavicle 8.29926e-015 -6.36111e-015
lhumerus -20.0455 4.10834 85.7881
lradius 17.8479
lwrist -1.15449
lhand -24.1347 -3.39189
lfingers 7.12502
lthumb 2.34726 26.5749
rfemur -13.5853 -2.18358 18.9624
rtibia 20.1532
rfoot -13.0061 -3.92691
rtoes 11.0286
lfemur -12.3759 8.49332 -18.3497
ltibia 17.4729
lfoot -10.1079 5.40881
ltoes -8.83238
164
root 0.811499 17.5601 -14.0045 7.10233 -1.00487 -1.39228
lowerback -2.93998 -0.92972 0.130274
upperback 3.05086 -1.32979 1.82976
thorax 4.84158 -0.69114 1.72495
lowerneck -13.5425 0.132264 -2.21999
upperneck 28.3697 0.913436 -0.538604
head 11.4608 0.100124 0.307509
rclavicle -5.96354e-015 -1.78906e-014
rhumerus -23.1689 -19.1636 -78.4393
rradius 25.4876
rwrist 32.9087
rhand -17.9741 -26.0549
rfingers 7.12502
rthumb 8.29536 -55.8721
lclavicle -5.96354e-015 -1.78906e-014
lhumerus -20.0257 4.05848 85.8041
lradius 17.8762
lwrist -1.10936
lhand -24.1394 -3.37549
lfingers 7.12502
lthumb 2.34275 26.5914
rfemur -13.6179 -2.19331 18.9593
rtibia 20.1591
rfoot -12.9956 -3.94129
rtoes 11.039
lfemur -12.417 8.50707 -18.3587
ltibia 17.4805
lfoot -10.1221 5.35478
ltoes -8.78634
165
root 0.812597 17.5605 -14.0088 7.12016 -0.977041 -1.39141
lowerback -2.91548 -0.936519 0.145391
upperback 3.05182 -1.33942 1.83127
thorax 4.8286 -0.695396 1.7177
lowerneck -13.5482 0.132357 -2.21795
upperneck 28.3588 0.914318 -0.542757
head 11.4578 0.100365 0.305752
rclavicle 7.45443e-015 -1.55052e-014
rhumerus -23.1832 -19.1348 -78.4344
rradius 25.4914
rwrist 32.8901
rhand -17.9683 -26.0486
rfingers 7.12502
rthumb 8.30092 -55.8655
lclavicle 7.45443e-015 -1.55052e-014
lhumerus -20.0021 4.00904 85.8216
lradius 17.9042
lwrist -1.0673
lhand -24.1379 -3.35383
lfingers 7.12502
lthumb 2.3442 26.613
rfemur -13.6506 -2.20184 18.9568
rtibia 20.1613
rfoot -12.9828 -3.95899
rtoes 11.0565
lfemur -12.4624 8.51567 -18.3667
ltibia 17.4922
lfoot -10.1365 5.29996
ltoes -8.72019
166
root 0.813648 17.561 -14.0131 7.1392 -0.945743 -1.39115
lowerback -2.89131 -0.943923 0.160056
upperback 3.05358 -1.34991 1.83445
thorax 4.81672 -0.700138 1.71236
lowerneck -13.5523 0.132225 -2.21627
upperneck 28.3418 0.915216 -0.548153
head 11.4521 0.100507 0.303592
rclavicle -9.74045e-015 2.18663e-014
rhumerus -23.1959 -19.1072 -78.4272
rradius 25.4938
rwrist 32.8746
rhand -17.9566 -26.0478
rfingers 7.12502
rthumb 8.3122 -55.8643
lclavicle -9.74045e-015 2.18663e-014
lhumerus -19.9766 3.9626 85.8406
lradius 17.9322
lwrist -1.0295
lhand -24.1364 -3.35199
lfingers 7.12502
lthumb 2.34565 26.6149
rfemur -13.683 -2.20928 18.955
rtibia 20.1613
rfoot -12.97 -3.97984
rtoes 11.0822
lfemur -12.5113 8.52296 -18.374
ltibia 17.5075
lfoot -10.1503 5.2441
ltoes -8.64453
167
root 0.814651 17.5614 -14.0174 7.16048 -0.914332 -1.39164
lowerback -2.86736 -0.94999 0.174783
upperback 3.05493 -1.35864 1.83823
thorax 4.8045 -0.70401 1.70775
lowerneck -13.5562 0.131102 -2.21379
upperneck 28.3235 0.914515 -0.553695
head 11.4459 0.100024 0.30102
rclavicle -1.10822e-014 5.1684e-015
rhumerus -23.2069 -19.0899 -78.4162
rradius 25.4895
rwrist 32.8699
rhand -17.9428 -26.0482
rfingers 7.12502
rthumb 8.32553 -55.8641
lclavicle -1.10822e-014 5.1684e-015
lhumerus -19.949 3.91396 85.8608
lradius 17.957
lwrist -0.995482
lhand -24.1318 -3.35686
lfingers 7.12502
lthumb 2.35003 26.6099
rfemur -13.7176 -2.21385 18.9542
rtibia 20.1602
rfoot -12.9558 -4.00343
rtoes 11.1053
lfemur -12.5647 8.52999 -18.3813
ltibia 17.5256
lfoot -10.1611 5.19139
ltoes -8.57917
168
root 0.815606 17.5617 -14.0218 7.1832 -0.880041 -1.39297
lowerback -2.84308 -0.955856 0.189415
upperback 3.05677 -1.36715 1.84341
thorax 4.79262 -0.707809 1.70466
lowerneck -13.5644 0.130262 -2.20817
upperneck 28.3068 0.914632 -0.562803
head 11.4411 0.0997749 0.296728
rclavicle 1.53064e-014 -7.55382e-015
rhumerus -23.2145 -19.0809 -78.4015
rradius 25.4794
rwrist 32.8752
rhand -17.9268 -26.0514
rfingers 7.12502
rthumb 8.34099 -55.8667
lclavicle 1.53064e-014 -7.55382e-015
lhumerus -19.9195 3.8612 85.8835
lradius 17.9806
lwrist -0.960158
lhand -24.1262 -3.36882
lfingers 7.12502
lthumb 2.35547 26.5979
rfemur -13.7529 -2.21972 18.9548
rtibia 20.1588
rfoot -12.9416 -4.02864
rtoes 11.1266
lfemur -12.6226 8.53711 -18.3883
ltibia 17.5467
lfoot -10.1686 5.13952
ltoes -8.52931
169
root 0.816521 17.562 -14.0261 7.2059 -0.846091 -1.39464
lowerback -2.81867 -0.960775 0.202907
upperback 3.05893 -1.37437 1.84956
thorax 4.78103 -0.711031 1.70331
lowerneck -13.5696 0.129508 -2.20288
upperneck 28.2893 0.914664 -0.571244
head 11.4356 0.0995614 0.292718
rclavicle -2.68359e-014 7.15625e-015
rhumerus -23.2205 -19.0811 -78.3829
rradius 25.4627
rwrist 32.8906
rhand -17.9175 -26.0533
rfingers 7.12502
rthumb 8.34997 -55.8682
lclavicle -2.68359e-014 7.15625e-015
lhumerus -19.8902 3.80654 85.9076
lradius 18.0049
lwrist -0.92515
lhand -24.1147 -3.37138
lfingers 7.12502
lthumb 2.36661 26.5952
rfemur -13.7885 -2.2256 18.956
rtibia 20.1579
rfoot -12.9269 -4.05453
rtoes 11.1392
lfemur -12.682 8.54082 -18.3951
ltibia 17.5704
lfoot -10.1748 5.09394
ltoes -8.48995
